Coordinates
nRows=246
nColumns=2
inDegrees=yes
endheader
time	ankle_angle_r	
2.92742	 -0.381470	
2.96069	 -0.423727	
2.99395	 -0.408372	
3.02722	 -0.400441	
3.06048	 -0.385279	
3.09375	 -0.358763	
3.12702	 -0.385472	
3.16028	 -0.423147	
3.19355	 -0.359343	
3.22681	 -0.394347	
3.26008	 -0.372692	
3.29335	 -0.335693	
3.32661	 -0.381470	
3.35988	 -0.375569	
3.39315	 -0.350952	
3.42641	 -0.400959	
3.45968	 -0.411987	
3.49294	 -0.325500	
3.52621	 -0.376307	
3.55948	 -0.417246	
3.59274	 -0.325790	
3.62601	 -0.371663	
3.65927	 -0.392568	
3.69254	 -0.335693	
3.72581	 -0.411987	
3.75907	 -0.393148	
3.79234	 -0.347565	
3.8256	 -0.411987	
3.85887	 -0.357081	
3.89214	 -0.357178	
3.9254	 -0.372534	
3.95867	 -0.424826	
3.99194	 -0.342209	
4.0252	 -0.364178	
4.05847	 -0.403438	
4.09173	 -0.342499	
4.125	 -0.381470	
4.15827	 -0.388469	
4.19153	 -0.342790	
4.2248	 -0.375150	
4.25806	 -0.350272	
4.29133	 -0.358825	
4.3246	 -0.381763	
4.35786	 -0.358432	
4.39113	 -0.389146	
4.4244	 -0.404501	
4.45766	 -0.381950	
4.49093	 -0.350952	
4.52419	 -0.380602	
4.55746	 -0.367272	
4.59073	 -0.343950	
4.62399	 -0.411987	
4.65726	 -0.389919	
4.69052	 -0.328981	
4.72379	 -0.411987	
4.75706	 -0.366211	
4.79032	 -0.381470	
4.82359	 -0.359885	
4.85685	 -0.375241	
4.89012	 -0.381470	
4.92339	 -0.396729	
4.95665	 -0.396729	
4.98992	 -0.381470	
5.02319	 -0.436759	
5.05645	 -0.379782	
5.08972	 -0.366211	
5.12298	 -0.437049	
5.15625	 -0.386828	
5.18952	 -0.396729	
5.22278	 -0.416915	
5.25605	 -0.396729	
5.28931	 -0.402043	
5.32258	 -0.401604	
5.35585	 -0.386248	
5.38911	 -0.392047	
5.42238	 -0.437920	
5.45565	 -0.376981	
5.48891	 -0.370603	
5.52218	 -0.411987	
5.55544	 -0.384133	
5.58871	 -0.403784	
5.62198	 -0.419236	
5.65524	 -0.370119	
5.68851	 -0.385282	
5.72177	 -0.411987	
5.75504	 -0.404751	
5.78831	 -0.377948	
5.82157	 -0.400154	
5.85484	 -0.381470	
5.8881	 -0.366211	
5.92137	 -0.424111	
5.95464	 -0.381470	
5.9879	 -0.409046	
6.02117	 -0.399573	
6.05444	 -0.366211	
6.0877	 -0.406684	
6.12097	 -0.371321	
6.15423	 -0.363753	
6.1875	 -0.363849	
6.22077	 -0.409723	
6.25403	 -0.364043	
6.2873	 -0.348881	
6.32056	 -0.366211	
6.35383	 -0.335693	
6.3871	 -0.349171	
6.42036	 -0.379785	
6.45363	 -0.363035	
6.4869	 -0.335693	
6.52016	 -0.334299	
6.55343	 -0.338289	
6.58669	 -0.335693	
6.61996	 -0.334589	
6.65323	 -0.319427	
6.68649	 -0.348219	
6.71976	 -0.350138	
6.75302	 -0.351670	
6.78629	 -0.335072	
6.81956	 -0.335169	
6.85282	 -0.305176	
6.88609	 -0.304845	
6.91935	 -0.336162	
6.95262	 -0.290055	
6.98589	 -0.274699	
7.01915	 -0.320490	
7.05242	 -0.320435	
7.08569	 -0.366460	
7.11895	 -0.411987	
7.15222	 -0.366653	
7.18548	 -0.380931	
7.21875	 -0.397364	
7.25202	 -0.395996	
7.28528	 -0.351781	
7.31855	 -0.411987	
7.35181	 -0.351975	
7.38508	 -0.354310	
7.41835	 -0.397944	
7.45161	 -0.392791	
7.48488	 -0.381470	
7.51815	 -0.396729	
7.55141	 -0.381470	
7.58468	 -0.366211	
7.61794	 -0.396729	
7.65121	 -0.381470	
7.68448	 -0.366211	
7.71774	 -0.425160	
7.75101	 -0.366211	
7.78427	 -0.368490	
7.81754	 -0.396729	
7.85081	 -0.378997	
7.88407	 -0.366211	
7.91734	 -0.396729	
7.9506	 -0.366211	
7.98387	 -0.356671	
8.01714	 -0.409031	
8.0504	 -0.408934	
8.08367	 -0.363061	
8.11694	 -0.420753	
8.1502	 -0.374784	
8.18347	 -0.354392	
8.21673	 -0.400265	
8.25	 -0.366211	
8.28327	 -0.354682	
8.31653	 -0.366211	
8.3498	 -0.350952	
8.38306	 -0.309196	
8.41633	 -0.362094	
8.4496	 -0.331480	
8.48286	 -0.320435	
8.51613	 -0.355359	
8.5494	 -0.340197	
8.58266	 -0.355552	
8.61593	 -0.401425	
8.64919	 -0.366211	
8.68246	 -0.361321	
8.71573	 -0.422259	
8.74899	 -0.371294	
8.78226	 -0.330795	
8.81552	 -0.396157	
8.84879	 -0.401241	
8.88206	 -0.376000	
8.91532	 -0.411987	
8.94859	 -0.387133	
8.98185	 -0.369949	
9.01512	 -0.415532	
9.04839	 -0.387423	
9.08165	 -0.369369	
9.11492	 -0.396729	
9.14819	 -0.375226	
9.18145	 -0.381470	
9.21472	 -0.414372	
9.24798	 -0.381470	
9.28125	 -0.374839	
9.31452	 -0.403455	
9.34778	 -0.381470	
9.38105	 -0.382888	
9.41431	 -0.427246	
9.44758	 -0.403842	
9.48085	 -0.381470	
9.51411	 -0.412632	
9.54738	 -0.381019	
9.58065	 -0.396986	
9.61391	 -0.419649	
9.64718	 -0.381599	
9.68044	 -0.388938	
9.71371	 -0.380954	
9.74698	 -0.350952	
9.78024	 -0.350050	
9.81351	 -0.388551	
9.84677	 -0.335693	
9.88004	 -0.366211	
9.91331	 -0.364535	
9.94657	 -0.342388	
9.97984	 -0.364148	
10.0131	 -0.372712	
10.0464	 -0.326839	
10.0796	 -0.372519	
10.1129	 -0.344741	
10.1462	 -0.323520	
10.1794	 -0.369006	
10.2127	 -0.320435	
10.246	 -0.345128	
10.2792	 -0.356680	
10.3125	 -0.375839	
10.3458	 -0.331504	
10.379	 -0.356390	
10.4123	 -0.325776	
10.4456	 -0.320435	
10.4788	 -0.361248	
10.5121	 -0.315278	
10.5454	 -0.315480	
10.5786	 -0.335693	
10.6119	 -0.320435	
10.6452	 -0.285253	
10.6784	 -0.314311	
10.7117	 -0.335693	
10.745	 -0.331319	
10.7782	 -0.320435	
10.8115	 -0.346771	
10.8448	 -0.294001	
10.878	 -0.377482	
10.9113	 -0.362320	
10.9446	 -0.392934	
10.9778	 -0.385167	
11.0111	 -0.366211	
11.0444	 -0.350952	
11.0776	 -0.384877	
